<?xml version="1.0" encoding="utf-8"?>
<!-- Generator: Adobe Illustrator 24.0.0, SVG Export Plug-In . SVG Version: 6.00 Build 0)  -->
<svg version="1.1" id="Layer_1" xmlns="http://www.w3.org/2000/svg" xmlns:xlink="http://www.w3.org/1999/xlink" x="0px" y="0px"
	 viewBox="0 0 34 32" style="enable-background:new 0 0 34 32;" xml:space="preserve">
<style type="text/css">
	.st0{fill:none;}
	.st1{fill:#04FBFF;}
</style>
<g>
	<title>background</title>
	<g id="canvas_background">
		<rect x="-1" y="-1" class="st0" width="582" height="402"/>
	</g>
</g>
<g>
	<title>Layer 1</title>
	<g id="svg_1">
		<path class="st1" d="M3.6,2.8v27.1h27.5V2.8C31.1,2.8,3.6,2.8,3.6,2.8z M28.9,27.8H5.7V5h23.2V27.8z"/>
	</g>
</g>
<g>
	<path class="st1" d="M11.8,18.2l-1.3,3.9H8.8L13,9.8h1.9l4.2,12.3h-1.7l-1.3-3.9H11.8z M15.8,17l-1.2-3.5c-0.3-0.8-0.5-1.5-0.6-2.3
		h0c-0.2,0.7-0.4,1.5-0.6,2.2L12.1,17H15.8z"/>
	<path class="st1" d="M22.6,9.8v12.3H21V9.8H22.6z"/>
</g>
</svg>
